<svg width="25" height="24" viewBox="0 0 25 24" fill="none" xmlns="http://www.w3.org/2000/svg">
<path fill-rule="evenodd" clip-rule="evenodd" d="M6.35584 3.61739C7.69011 2.72585 9.25879 2.25 10.8635 2.25H10.8636C13.0154 2.25014 15.079 3.105 16.6005 4.62655C18.1221 6.14811 18.977 8.21174 18.9771 10.3635V10.3636C18.9771 11.9683 18.5012 13.537 17.6097 14.8713C17.4532 15.1054 17.2852 15.3305 17.1065 15.5459L22.0302 20.4697C22.3231 20.7626 22.3231 21.2374 22.0302 21.5303C21.7373 21.8232 21.2625 21.8232 20.9696 21.5303L16.0458 16.6065C15.4234 17.1232 14.7239 17.5467 13.9684 17.8596C12.4859 18.4737 10.8545 18.6344 9.28062 18.3213C7.70674 18.0082 6.26104 17.2355 5.12633 16.1008C3.99162 14.9661 3.21888 13.5204 2.90581 11.9465C2.59275 10.3726 2.75342 8.74122 3.36752 7.25866C3.98162 5.77609 5.02156 4.50892 6.35584 3.61739ZM10.8635 3.75C9.55543 3.75001 8.27678 4.13789 7.18919 4.86459C6.10159 5.5913 5.25391 6.6242 4.75334 7.83268C4.25277 9.04116 4.1218 10.3709 4.37699 11.6538C4.63218 12.9368 5.26206 14.1152 6.18699 15.0401C7.11192 15.965 8.29035 16.5949 9.57326 16.8501C10.8562 17.1053 12.1859 16.9743 13.3944 16.4738C14.6029 15.9732 15.6358 15.1255 16.3625 14.0379C17.0892 12.9503 17.4771 11.6717 17.4771 10.3636M10.8635 3.75C12.6175 3.75012 14.2996 4.44695 15.5399 5.68721C16.7801 6.92748 17.477 8.6096 17.4771 10.3636" fill="#C4C4CC"/>
</svg>
